
<svg version="1.1" id="_x32_" xmlns="http://www.w3.org/2000/svg" xmlns:xlink="http://www.w3.org/1999/xlink" width="800px" height="800px" viewBox="0 0 512 512"  xml:space="preserve"><style type="text/css">
<![CDATA[.st0{fill:#000000;}]]></style><g><path class="st0" d="M511.068,259.125c-1.516-2.156-4.578-3.156-7.484-2.469l-171.859,23c-1.172,6.094-3.109,12.484-6.234,15.922
		c0.031-0.172,0.063-0.328-0.047,0.047c-0.016-9.75-1.75-11.063-5.859-35.188c-5.859-21.672-13.438-37.75-22.766-48.859
		l21.109-9.719c1.938-0.703,2.953-2.828,2.25-4.781c-0.688-1.938-2.828-2.953-4.781-2.266l-28.813,7.047
		c-7.078-5.219-14.953-8.266-23.625-9.297l-3.078-33.156c0.016-2.078-1.641-3.766-3.703-3.781c-2.062-0.016-3.75,1.641-3.781,3.688
		l-3.313,33.234c-8.688,1.047-16.578,4.078-23.672,9.313l-28.813-7.047c-1.953-0.688-4.094,0.328-4.781,2.266
		c-0.703,1.953,0.313,4.078,2.25,4.781l21.109,9.719c-9.328,11.109-16.906,27.188-22.766,48.859
		c-4.109,24.125-5.844,25.438-5.859,35.188c0.016,0.047,0.047,0.125,0.063,0.203c-0.016-0.016-0.031-0.031-0.063-0.063
		c-3.188-3.438-5.125-9.938-6.297-16.109l-171.828-23c-2.922-0.688-5.984,0.313-7.484,2.469c-1.531,2.156-1.172,4.969,0.891,6.906
		c7.281,10.188,25.688,16.188,35.063,20.531l50.406,13.188c-0.531,0.406-1.031,0.813-1.516,1.234
		c-4.844,4.266-8.219,10.313-9.031,17.219c-0.125,1.078-0.188,2.156-0.188,3.25c0,6.813,2.547,13.156,6.828,18
		c4.25,4.828,10.297,8.203,17.203,9.031l0,0l0.172,0.016l-0.141-0.016c1.078,0.125,2.141,0.188,3.219,0.188
		c6.797,0,13.156-2.547,18-6.828c4.844-4.25,8.219-10.297,9.016-17.203c0.141-1.094,0.203-2.172,0.203-3.234
		c0-3.797-0.797-7.438-2.219-10.75l72.422,18.969c12.703,16.281,32.484,26.75,54.719,26.75c22.25,0,42.031-10.469,54.734-26.75
		l72.422-18.969c-1.422,3.313-2.219,6.953-2.219,10.75c0,1.063,0.063,2.141,0.203,3.234c0.797,6.906,4.188,12.953,9.016,17.203
		c4.844,4.281,11.203,6.828,18.016,6.828c1.063,0,2.141-0.063,3.203-0.188l-0.328,0.047l0.359-0.047
		c6.906-0.828,12.969-4.203,17.203-9.031c4.281-4.844,6.844-11.188,6.844-18c0-1.094-0.078-2.172-0.203-3.25
		c-0.813-6.906-4.188-12.953-9.031-17.219c-0.484-0.422-0.984-0.828-1.5-1.234l50.391-13.188
		c9.375-4.344,27.781-10.344,35.063-20.531C512.225,264.094,512.584,261.281,511.068,259.125z M102.194,334.891l-0.172-0.031
		l0.188,0.031C102.209,334.891,102.209,334.891,102.194,334.891z M117.288,323.031v-0.016c-0.422,3.469-2.078,6.422-4.5,8.563
		c-2.422,2.156-5.563,3.406-8.938,3.406c-0.547,0-1.078-0.031-1.641-0.094c-3.469-0.422-6.406-2.078-8.563-4.484
		c-2.125-2.438-3.391-5.578-3.391-8.953c0-0.547,0.031-1.094,0.094-1.641c0.422-3.469,2.063-6.406,4.5-8.563
		c2.422-2.141,5.563-3.391,8.938-3.391c0.531,0,1.078,0.031,1.609,0.094h0.016c3.484,0.422,6.422,2.063,8.563,4.5
		c2.141,2.422,3.406,5.563,3.406,8.953C117.381,321.938,117.35,322.469,117.288,323.031z M250.788,252.094h-20.859
		c-7.016,0-12.703-5.688-12.703-12.688c0-7.031,5.688-12.719,12.703-12.719h20.859V252.094z M282.068,252.094h-20.844v-25.406
		h20.844c7.016,0,12.703,5.688,12.703,12.719C294.771,246.406,289.084,252.094,282.068,252.094z M409.803,334.891
		c-0.016,0-0.016,0-0.016,0l0.359-0.047L409.803,334.891z M418.35,330.406c-2.141,2.406-5.094,4.063-8.563,4.484
		c-0.563,0.063-1.094,0.094-1.625,0.094c-3.391,0-6.531-1.25-8.953-3.406c-2.422-2.141-4.078-5.094-4.5-8.563
		c-0.063-0.547-0.094-1.078-0.094-1.609c0-3.391,1.266-6.531,3.406-8.953c2.141-2.438,5.094-4.078,8.563-4.5h0.016
		c0.531-0.063,1.078-0.094,1.609-0.094c3.375,0,6.516,1.25,8.953,3.391c2.422,2.156,4.063,5.094,4.484,8.563
		c0.063,0.547,0.094,1.094,0.094,1.641C421.74,324.828,420.49,327.969,418.35,330.406z"/>
	<path class="st0" d="M186.553,295.766c0,0,0-0.094,0-0.141C186.381,295.031,186.553,295.766,186.553,295.766z"/>
</g>
</svg>